<mxfile host="app.diagrams.net" agent="Mozilla/5.0 (Macintosh; Intel Mac OS X 10_15_7) AppleWebKit/537.36 (KHTML, like Gecko) Chrome/129.0.0.0 Safari/537.36" version="24.8.6">
  <diagram id="prtHgNgQTEPvFCAcTncT" name="Page-1">
    <mxGraphModel dx="2546" dy="517" grid="1" gridSize="10" guides="1" tooltips="1" connect="1" arrows="1" fold="1" page="1" pageScale="1" pageWidth="827" pageHeight="1169" math="0" shadow="0">
      <root>
        <mxCell id="0" />
        <mxCell id="1" parent="0" />
        <mxCell id="dNxyNK7c78bLwvsdeMH5-19" value="招标大厅" style="swimlane;html=1;childLayout=stackLayout;resizeParent=1;resizeParentMax=0;horizontal=0;startSize=20;horizontalStack=0;" parent="1" vertex="1">
          <mxGeometry x="120" y="120" width="1580" height="620" as="geometry" />
        </mxCell>
        <mxCell id="dNxyNK7c78bLwvsdeMH5-20" value="列表查询" style="swimlane;html=1;startSize=20;horizontal=0;align=center;" parent="dNxyNK7c78bLwvsdeMH5-19" vertex="1">
          <mxGeometry x="20" width="1560" height="120" as="geometry" />
        </mxCell>
        <mxCell id="dNxyNK7c78bLwvsdeMH5-25" value="" style="edgeStyle=orthogonalEdgeStyle;rounded=0;orthogonalLoop=1;jettySize=auto;html=1;" parent="dNxyNK7c78bLwvsdeMH5-20" source="dNxyNK7c78bLwvsdeMH5-23" target="dNxyNK7c78bLwvsdeMH5-24" edge="1">
          <mxGeometry relative="1" as="geometry" />
        </mxCell>
        <mxCell id="dNxyNK7c78bLwvsdeMH5-23" value="/list" style="ellipse;whiteSpace=wrap;html=1;fillColor=#f8cecc;strokeColor=#b85450;" parent="dNxyNK7c78bLwvsdeMH5-20" vertex="1">
          <mxGeometry x="40" y="40" width="40" height="40" as="geometry" />
        </mxCell>
        <mxCell id="eU4avIr93L6JoO_hdqMd-41" value="" style="edgeStyle=orthogonalEdgeStyle;rounded=0;orthogonalLoop=1;jettySize=auto;html=1;" edge="1" parent="dNxyNK7c78bLwvsdeMH5-20" source="dNxyNK7c78bLwvsdeMH5-24" target="eU4avIr93L6JoO_hdqMd-8">
          <mxGeometry relative="1" as="geometry" />
        </mxCell>
        <mxCell id="dNxyNK7c78bLwvsdeMH5-24" value="remote转发" style="rounded=0;whiteSpace=wrap;html=1;fontFamily=Helvetica;fontSize=12;align=center;fillColor=#f8cecc;strokeColor=#b85450;" parent="dNxyNK7c78bLwvsdeMH5-20" vertex="1">
          <mxGeometry x="120" y="30" width="80" height="60" as="geometry" />
        </mxCell>
        <mxCell id="eU4avIr93L6JoO_hdqMd-43" value="" style="edgeStyle=orthogonalEdgeStyle;rounded=0;orthogonalLoop=1;jettySize=auto;html=1;" edge="1" parent="dNxyNK7c78bLwvsdeMH5-20" source="dNxyNK7c78bLwvsdeMH5-30" target="eU4avIr93L6JoO_hdqMd-7">
          <mxGeometry relative="1" as="geometry" />
        </mxCell>
        <mxCell id="dNxyNK7c78bLwvsdeMH5-30" value="SignInterceptor&lt;div&gt;协同接口appid鉴权&lt;/div&gt;" style="rounded=0;html=1;fontFamily=Helvetica;fontSize=12;align=center;fillColor=#d5e8d4;strokeColor=#82b366;whiteSpace=wrap;" parent="dNxyNK7c78bLwvsdeMH5-20" vertex="1">
          <mxGeometry x="480" y="30" width="120" height="60" as="geometry" />
        </mxCell>
        <mxCell id="eU4avIr93L6JoO_hdqMd-42" value="" style="edgeStyle=orthogonalEdgeStyle;rounded=0;orthogonalLoop=1;jettySize=auto;html=1;" edge="1" parent="dNxyNK7c78bLwvsdeMH5-20" source="eU4avIr93L6JoO_hdqMd-8" target="dNxyNK7c78bLwvsdeMH5-30">
          <mxGeometry relative="1" as="geometry" />
        </mxCell>
        <mxCell id="eU4avIr93L6JoO_hdqMd-8" value="HttpUserInfoFillInterceptor&lt;br&gt;根据 srm-rfx-user-id获取用户信息" style="rounded=0;html=1;fontFamily=Helvetica;fontSize=12;align=center;fillColor=#d5e8d4;strokeColor=#82b366;whiteSpace=wrap;" vertex="1" parent="dNxyNK7c78bLwvsdeMH5-20">
          <mxGeometry x="250" y="30" width="180" height="60" as="geometry" />
        </mxCell>
        <mxCell id="eU4avIr93L6JoO_hdqMd-44" value="" style="edgeStyle=orthogonalEdgeStyle;rounded=0;orthogonalLoop=1;jettySize=auto;html=1;" edge="1" parent="dNxyNK7c78bLwvsdeMH5-20" source="eU4avIr93L6JoO_hdqMd-7" target="eU4avIr93L6JoO_hdqMd-37">
          <mxGeometry relative="1" as="geometry" />
        </mxCell>
        <mxCell id="eU4avIr93L6JoO_hdqMd-7" value="&lt;div&gt;RfxBidOuterController&lt;br&gt;&lt;/div&gt;/rfx/outer&lt;span style=&quot;background-color: initial;&quot;&gt;/bid/list&lt;/span&gt;" style="rounded=0;html=1;fontFamily=Helvetica;fontSize=12;align=center;fillColor=#d5e8d4;strokeColor=#82b366;whiteSpace=wrap;" vertex="1" parent="dNxyNK7c78bLwvsdeMH5-20">
          <mxGeometry x="650" y="30" width="140" height="60" as="geometry" />
        </mxCell>
        <mxCell id="eU4avIr93L6JoO_hdqMd-76" value="" style="edgeStyle=orthogonalEdgeStyle;rounded=0;orthogonalLoop=1;jettySize=auto;html=1;" edge="1" parent="dNxyNK7c78bLwvsdeMH5-20" source="eU4avIr93L6JoO_hdqMd-37" target="eU4avIr93L6JoO_hdqMd-75">
          <mxGeometry relative="1" as="geometry" />
        </mxCell>
        <mxCell id="eU4avIr93L6JoO_hdqMd-37" value="封装查询条件+vendorCode" style="rounded=0;html=1;fontFamily=Helvetica;fontSize=12;align=center;fillColor=#d5e8d4;strokeColor=#82b366;whiteSpace=wrap;" vertex="1" parent="dNxyNK7c78bLwvsdeMH5-20">
          <mxGeometry x="840" y="30" width="140" height="60" as="geometry" />
        </mxCell>
        <mxCell id="eU4avIr93L6JoO_hdqMd-47" value="" style="edgeStyle=orthogonalEdgeStyle;rounded=0;orthogonalLoop=1;jettySize=auto;html=1;" edge="1" parent="dNxyNK7c78bLwvsdeMH5-20" source="eU4avIr93L6JoO_hdqMd-40" target="eU4avIr93L6JoO_hdqMd-46">
          <mxGeometry relative="1" as="geometry" />
        </mxCell>
        <mxCell id="eU4avIr93L6JoO_hdqMd-40" value="组装数据响应" style="rounded=0;html=1;fontFamily=Helvetica;fontSize=12;align=center;fillColor=#d5e8d4;strokeColor=#82b366;whiteSpace=wrap;" vertex="1" parent="dNxyNK7c78bLwvsdeMH5-20">
          <mxGeometry x="1260" y="30" width="140" height="60" as="geometry" />
        </mxCell>
        <mxCell id="eU4avIr93L6JoO_hdqMd-46" value="END" style="ellipse;whiteSpace=wrap;html=1;fillColor=#f8cecc;strokeColor=#b85450;" vertex="1" parent="dNxyNK7c78bLwvsdeMH5-20">
          <mxGeometry x="1449.5" y="40" width="40" height="40" as="geometry" />
        </mxCell>
        <mxCell id="eU4avIr93L6JoO_hdqMd-77" value="" style="edgeStyle=orthogonalEdgeStyle;rounded=0;orthogonalLoop=1;jettySize=auto;html=1;" edge="1" parent="dNxyNK7c78bLwvsdeMH5-20" source="eU4avIr93L6JoO_hdqMd-75" target="eU4avIr93L6JoO_hdqMd-40">
          <mxGeometry relative="1" as="geometry" />
        </mxCell>
        <mxCell id="eU4avIr93L6JoO_hdqMd-75" value="查询SQL为什么没有&lt;div&gt;distinct??&lt;/div&gt;" style="rounded=0;html=1;fontFamily=Helvetica;fontSize=12;align=center;fillColor=#e3c800;strokeColor=#B09500;whiteSpace=wrap;fontColor=#000000;" vertex="1" parent="dNxyNK7c78bLwvsdeMH5-20">
          <mxGeometry x="1050" y="30" width="140" height="60" as="geometry" />
        </mxCell>
        <mxCell id="dNxyNK7c78bLwvsdeMH5-21" value="详情页" style="swimlane;html=1;startSize=20;horizontal=0;" parent="dNxyNK7c78bLwvsdeMH5-19" vertex="1">
          <mxGeometry x="20" y="120" width="1560" height="500" as="geometry" />
        </mxCell>
        <mxCell id="eU4avIr93L6JoO_hdqMd-10" value="" style="edgeStyle=orthogonalEdgeStyle;rounded=0;orthogonalLoop=1;jettySize=auto;html=1;" edge="1" parent="dNxyNK7c78bLwvsdeMH5-21" source="eU4avIr93L6JoO_hdqMd-11" target="eU4avIr93L6JoO_hdqMd-12">
          <mxGeometry relative="1" as="geometry" />
        </mxCell>
        <mxCell id="eU4avIr93L6JoO_hdqMd-11" value="/detail" style="ellipse;whiteSpace=wrap;html=1;fillColor=#f8cecc;strokeColor=#b85450;" vertex="1" parent="dNxyNK7c78bLwvsdeMH5-21">
          <mxGeometry x="40" y="40" width="40" height="40" as="geometry" />
        </mxCell>
        <mxCell id="eU4avIr93L6JoO_hdqMd-52" value="" style="edgeStyle=orthogonalEdgeStyle;rounded=0;orthogonalLoop=1;jettySize=auto;html=1;" edge="1" parent="dNxyNK7c78bLwvsdeMH5-21" source="eU4avIr93L6JoO_hdqMd-12" target="eU4avIr93L6JoO_hdqMd-51">
          <mxGeometry relative="1" as="geometry" />
        </mxCell>
        <mxCell id="eU4avIr93L6JoO_hdqMd-12" value="remote转发" style="rounded=0;whiteSpace=wrap;html=1;fontFamily=Helvetica;fontSize=12;align=center;fillColor=#f8cecc;strokeColor=#b85450;" vertex="1" parent="dNxyNK7c78bLwvsdeMH5-21">
          <mxGeometry x="120" y="30" width="80" height="60" as="geometry" />
        </mxCell>
        <mxCell id="eU4avIr93L6JoO_hdqMd-56" value="" style="edgeStyle=orthogonalEdgeStyle;rounded=0;orthogonalLoop=1;jettySize=auto;html=1;" edge="1" parent="dNxyNK7c78bLwvsdeMH5-21" source="eU4avIr93L6JoO_hdqMd-51" target="eU4avIr93L6JoO_hdqMd-55">
          <mxGeometry relative="1" as="geometry" />
        </mxCell>
        <mxCell id="eU4avIr93L6JoO_hdqMd-51" value="&lt;div&gt;RfxBidOuterController&lt;br&gt;&lt;/div&gt;/rfx/outer&lt;span style=&quot;background-color: initial;&quot;&gt;/bid/&lt;/span&gt;detail" style="rounded=0;html=1;fontFamily=Helvetica;fontSize=12;align=center;fillColor=#d5e8d4;strokeColor=#82b366;whiteSpace=wrap;" vertex="1" parent="dNxyNK7c78bLwvsdeMH5-21">
          <mxGeometry x="300" y="30" width="140" height="60" as="geometry" />
        </mxCell>
        <mxCell id="eU4avIr93L6JoO_hdqMd-49" value="&lt;font style=&quot;font-size: 22px;&quot;&gt;...&lt;/font&gt;" style="text;html=1;align=center;verticalAlign=middle;whiteSpace=wrap;rounded=0;" vertex="1" parent="dNxyNK7c78bLwvsdeMH5-21">
          <mxGeometry x="200" y="60" width="60" height="30" as="geometry" />
        </mxCell>
        <mxCell id="eU4avIr93L6JoO_hdqMd-54" value="招标单号" style="text;html=1;align=center;verticalAlign=middle;whiteSpace=wrap;rounded=0;" vertex="1" parent="dNxyNK7c78bLwvsdeMH5-21">
          <mxGeometry x="220" y="30" width="60" height="30" as="geometry" />
        </mxCell>
        <mxCell id="eU4avIr93L6JoO_hdqMd-59" value="" style="edgeStyle=orthogonalEdgeStyle;rounded=0;orthogonalLoop=1;jettySize=auto;html=1;" edge="1" parent="dNxyNK7c78bLwvsdeMH5-21" source="eU4avIr93L6JoO_hdqMd-55" target="eU4avIr93L6JoO_hdqMd-58">
          <mxGeometry relative="1" as="geometry" />
        </mxCell>
        <mxCell id="eU4avIr93L6JoO_hdqMd-55" value="&lt;font color=&quot;#ff3333&quot;&gt;封装查询条件&lt;/font&gt;" style="rounded=0;html=1;fontFamily=Helvetica;fontSize=12;align=center;fillColor=#d5e8d4;strokeColor=#82b366;whiteSpace=wrap;" vertex="1" parent="dNxyNK7c78bLwvsdeMH5-21">
          <mxGeometry x="490" y="30" width="80" height="60" as="geometry" />
        </mxCell>
        <mxCell id="eU4avIr93L6JoO_hdqMd-57" value="查询条件：&lt;div&gt;1. 招标单号；&lt;/div&gt;&lt;div style=&quot;&quot;&gt;2. 模块标识：&lt;/div&gt;&lt;div style=&quot;&quot;&gt;&lt;b&gt;单据归属信息、&lt;/b&gt;&lt;/div&gt;&lt;div style=&quot;&quot;&gt;&lt;b&gt;基础信息、&lt;/b&gt;&lt;/div&gt;&lt;div style=&quot;&quot;&gt;&lt;b&gt;采购明细、&lt;/b&gt;&lt;/div&gt;&lt;div style=&quot;&quot;&gt;&lt;b&gt;招标文件、&lt;/b&gt;&lt;/div&gt;&lt;div style=&quot;&quot;&gt;&lt;b&gt;供应商&lt;/b&gt;&lt;/div&gt;" style="text;html=1;align=left;verticalAlign=middle;whiteSpace=wrap;rounded=0;" vertex="1" parent="dNxyNK7c78bLwvsdeMH5-21">
          <mxGeometry x="650" y="110" width="120" height="120" as="geometry" />
        </mxCell>
        <mxCell id="eU4avIr93L6JoO_hdqMd-74" value="" style="edgeStyle=orthogonalEdgeStyle;rounded=0;orthogonalLoop=1;jettySize=auto;html=1;" edge="1" parent="dNxyNK7c78bLwvsdeMH5-21" source="eU4avIr93L6JoO_hdqMd-58" target="eU4avIr93L6JoO_hdqMd-73">
          <mxGeometry relative="1" as="geometry" />
        </mxCell>
        <mxCell id="eU4avIr93L6JoO_hdqMd-58" value="查询招投标主单&lt;br&gt;且状态=上图中的2说明" style="rounded=0;html=1;fontFamily=Helvetica;fontSize=12;align=center;fillColor=#d5e8d4;strokeColor=#82b366;whiteSpace=wrap;" vertex="1" parent="dNxyNK7c78bLwvsdeMH5-21">
          <mxGeometry x="620" y="30" width="130" height="60" as="geometry" />
        </mxCell>
        <mxCell id="eU4avIr93L6JoO_hdqMd-79" value="" style="edgeStyle=orthogonalEdgeStyle;rounded=0;orthogonalLoop=1;jettySize=auto;html=1;" edge="1" parent="dNxyNK7c78bLwvsdeMH5-21" source="eU4avIr93L6JoO_hdqMd-73" target="eU4avIr93L6JoO_hdqMd-78">
          <mxGeometry relative="1" as="geometry" />
        </mxCell>
        <mxCell id="eU4avIr93L6JoO_hdqMd-73" value="查询单据归属信息&lt;div&gt;1. 查询招标单状态；&lt;/div&gt;&lt;div&gt;2. 查询招标小组（条件：招标单号、采购员）；&lt;/div&gt;" style="rounded=0;html=1;fontFamily=Helvetica;fontSize=12;align=left;fillColor=#d5e8d4;strokeColor=#82b366;whiteSpace=wrap;" vertex="1" parent="dNxyNK7c78bLwvsdeMH5-21">
          <mxGeometry x="790" y="25" width="260" height="70" as="geometry" />
        </mxCell>
        <mxCell id="eU4avIr93L6JoO_hdqMd-81" value="" style="edgeStyle=orthogonalEdgeStyle;rounded=0;orthogonalLoop=1;jettySize=auto;html=1;" edge="1" parent="dNxyNK7c78bLwvsdeMH5-21" source="eU4avIr93L6JoO_hdqMd-78" target="eU4avIr93L6JoO_hdqMd-80">
          <mxGeometry relative="1" as="geometry" />
        </mxCell>
        <mxCell id="eU4avIr93L6JoO_hdqMd-78" value="&lt;div&gt;判断是否需要查询基础信息&lt;br&gt;&lt;/div&gt;&lt;div style=&quot;&quot;&gt;1. 查询招标单主表；&lt;/div&gt;&lt;div style=&quot;&quot;&gt;2. 查询招标策略；&lt;/div&gt;" style="rounded=0;html=1;fontFamily=Helvetica;fontSize=12;align=left;fillColor=#d5e8d4;strokeColor=#82b366;whiteSpace=wrap;" vertex="1" parent="dNxyNK7c78bLwvsdeMH5-21">
          <mxGeometry x="790" y="120" width="260" height="70" as="geometry" />
        </mxCell>
        <mxCell id="eU4avIr93L6JoO_hdqMd-83" value="" style="edgeStyle=orthogonalEdgeStyle;rounded=0;orthogonalLoop=1;jettySize=auto;html=1;" edge="1" parent="dNxyNK7c78bLwvsdeMH5-21" source="eU4avIr93L6JoO_hdqMd-80" target="eU4avIr93L6JoO_hdqMd-82">
          <mxGeometry relative="1" as="geometry" />
        </mxCell>
        <mxCell id="eU4avIr93L6JoO_hdqMd-80" value="&lt;div&gt;&lt;span style=&quot;background-color: initial;&quot;&gt;判断是否需要查询招标文件&lt;/span&gt;&lt;/div&gt;&lt;div&gt;&lt;span style=&quot;background-color: initial;&quot;&gt;1. 查询招标文件表；&lt;/span&gt;&lt;/div&gt;" style="rounded=0;html=1;fontFamily=Helvetica;fontSize=12;align=left;fillColor=#d5e8d4;strokeColor=#82b366;whiteSpace=wrap;" vertex="1" parent="dNxyNK7c78bLwvsdeMH5-21">
          <mxGeometry x="790" y="210" width="260" height="50" as="geometry" />
        </mxCell>
        <mxCell id="eU4avIr93L6JoO_hdqMd-85" value="" style="edgeStyle=orthogonalEdgeStyle;rounded=0;orthogonalLoop=1;jettySize=auto;html=1;" edge="1" parent="dNxyNK7c78bLwvsdeMH5-21" source="eU4avIr93L6JoO_hdqMd-82" target="eU4avIr93L6JoO_hdqMd-84">
          <mxGeometry relative="1" as="geometry" />
        </mxCell>
        <mxCell id="eU4avIr93L6JoO_hdqMd-82" value="&lt;div&gt;&lt;span style=&quot;background-color: initial;&quot;&gt;判断是否需要查询采购明细&lt;/span&gt;&lt;/div&gt;&lt;div&gt;&lt;span style=&quot;background-color: initial;&quot;&gt;1. 查询采购明细表；&lt;/span&gt;&lt;br&gt;&lt;/div&gt;" style="rounded=0;html=1;fontFamily=Helvetica;fontSize=12;align=left;fillColor=#d5e8d4;strokeColor=#82b366;whiteSpace=wrap;" vertex="1" parent="dNxyNK7c78bLwvsdeMH5-21">
          <mxGeometry x="790" y="282" width="260" height="50" as="geometry" />
        </mxCell>
        <mxCell id="eU4avIr93L6JoO_hdqMd-88" value="" style="edgeStyle=orthogonalEdgeStyle;rounded=0;orthogonalLoop=1;jettySize=auto;html=1;entryX=0;entryY=0.5;entryDx=0;entryDy=0;" edge="1" parent="dNxyNK7c78bLwvsdeMH5-21" source="eU4avIr93L6JoO_hdqMd-84" target="eU4avIr93L6JoO_hdqMd-86">
          <mxGeometry relative="1" as="geometry">
            <mxPoint x="1130" y="378" as="targetPoint" />
          </mxGeometry>
        </mxCell>
        <mxCell id="eU4avIr93L6JoO_hdqMd-84" value="&lt;div&gt;&lt;span style=&quot;background-color: initial;&quot;&gt;判断招标&lt;/span&gt;&lt;span style=&quot;background-color: initial;&quot;&gt;供应商&lt;/span&gt;&lt;/div&gt;&lt;div&gt;&lt;span style=&quot;background-color: initial;&quot;&gt;1. 查询供应商招标明细表；&lt;/span&gt;&lt;/div&gt;" style="rounded=0;html=1;fontFamily=Helvetica;fontSize=12;align=left;fillColor=#d5e8d4;strokeColor=#82b366;whiteSpace=wrap;" vertex="1" parent="dNxyNK7c78bLwvsdeMH5-21">
          <mxGeometry x="790" y="353" width="260" height="50" as="geometry" />
        </mxCell>
        <mxCell id="eU4avIr93L6JoO_hdqMd-86" value="判断响应数据&lt;div&gt;是否有该供应商&lt;/div&gt;" style="rounded=0;html=1;fontFamily=Helvetica;fontSize=12;align=center;fillColor=#e3c800;strokeColor=#B09500;whiteSpace=wrap;fontColor=#000000;" vertex="1" parent="dNxyNK7c78bLwvsdeMH5-21">
          <mxGeometry x="1120" y="30" width="130" height="60" as="geometry" />
        </mxCell>
        <mxCell id="eU4avIr93L6JoO_hdqMd-89" value="先查数据再过滤？会不会造成大量DB连接占用" style="text;html=1;align=center;verticalAlign=middle;whiteSpace=wrap;rounded=0;" vertex="1" parent="dNxyNK7c78bLwvsdeMH5-21">
          <mxGeometry x="1120" y="95" width="140" height="55" as="geometry" />
        </mxCell>
        <mxCell id="eU4avIr93L6JoO_hdqMd-92" value="" style="edgeStyle=orthogonalEdgeStyle;rounded=0;orthogonalLoop=1;jettySize=auto;html=1;" edge="1" parent="dNxyNK7c78bLwvsdeMH5-21" target="eU4avIr93L6JoO_hdqMd-93">
          <mxGeometry relative="1" as="geometry">
            <mxPoint x="1425" y="60" as="sourcePoint" />
          </mxGeometry>
        </mxCell>
        <mxCell id="eU4avIr93L6JoO_hdqMd-93" value="END" style="ellipse;whiteSpace=wrap;html=1;fillColor=#f8cecc;strokeColor=#b85450;" vertex="1" parent="dNxyNK7c78bLwvsdeMH5-21">
          <mxGeometry x="1466.5" y="40" width="40" height="40" as="geometry" />
        </mxCell>
        <mxCell id="eU4avIr93L6JoO_hdqMd-5" value="协同系统" style="rounded=0;whiteSpace=wrap;html=1;fillColor=#f8cecc;strokeColor=#b85450;" vertex="1" parent="1">
          <mxGeometry x="150" y="50" width="70" height="30" as="geometry" />
        </mxCell>
        <mxCell id="eU4avIr93L6JoO_hdqMd-6" value="主系统" style="rounded=0;whiteSpace=wrap;html=1;fillColor=#d5e8d4;strokeColor=#82b366;" vertex="1" parent="1">
          <mxGeometry x="240" y="50" width="70" height="30" as="geometry" />
        </mxCell>
        <mxCell id="eU4avIr93L6JoO_hdqMd-14" value="HH_RFX_BID&lt;br&gt;招标主单" style="rounded=1;whiteSpace=wrap;html=1;fillColor=#f8cecc;strokeColor=#b85450;" vertex="1" parent="1">
          <mxGeometry x="-834" y="290" width="150" height="50" as="geometry" />
        </mxCell>
        <mxCell id="eU4avIr93L6JoO_hdqMd-15" value="HH_RFX_BID_EVALUATE&lt;br&gt;招标 评标小组" style="rounded=1;whiteSpace=wrap;html=1;fillColor=#fff2cc;strokeColor=#d6b656;" vertex="1" parent="1">
          <mxGeometry x="-1150" y="380" width="150" height="50" as="geometry" />
        </mxCell>
        <mxCell id="eU4avIr93L6JoO_hdqMd-16" value="HH_RFX_BID_FILE&lt;br&gt;招标文件" style="rounded=1;whiteSpace=wrap;html=1;fillColor=#fff2cc;strokeColor=#d6b656;" vertex="1" parent="1">
          <mxGeometry x="-674" y="410" width="150" height="50" as="geometry" />
        </mxCell>
        <mxCell id="eU4avIr93L6JoO_hdqMd-17" value="HH_RFX_BID_PURCHASE_DETAIL&lt;br&gt;招标采购明细" style="rounded=1;whiteSpace=wrap;html=1;fillColor=#fff2cc;strokeColor=#d6b656;" vertex="1" parent="1">
          <mxGeometry x="-854" y="500" width="210" height="50" as="geometry" />
        </mxCell>
        <mxCell id="eU4avIr93L6JoO_hdqMd-18" value="HH_RFX_BID_STRATEGY&lt;br&gt;招标策略" style="rounded=1;whiteSpace=wrap;html=1;fillColor=#fff2cc;strokeColor=#d6b656;" vertex="1" parent="1">
          <mxGeometry x="-570" y="330" width="150" height="50" as="geometry" />
        </mxCell>
        <mxCell id="eU4avIr93L6JoO_hdqMd-19" value="HH_RFX_BID_TEAM&lt;br&gt;招标 招标小组" style="rounded=1;whiteSpace=wrap;html=1;fillColor=#fff2cc;strokeColor=#d6b656;" vertex="1" parent="1">
          <mxGeometry x="-1160" y="270" width="150" height="50" as="geometry" />
        </mxCell>
        <mxCell id="eU4avIr93L6JoO_hdqMd-21" value="HH_RFX_BID_VENDOR&lt;br&gt;招标 参与供应商" style="rounded=1;whiteSpace=wrap;html=1;fillColor=#fff2cc;strokeColor=#d6b656;" vertex="1" parent="1">
          <mxGeometry x="-964" y="410" width="150" height="50" as="geometry" />
        </mxCell>
        <mxCell id="eU4avIr93L6JoO_hdqMd-22" value="HH_RFX_CONFIRM&lt;br&gt;定标单" style="rounded=1;whiteSpace=wrap;html=1;fillColor=#f8cecc;strokeColor=#b85450;" vertex="1" parent="1">
          <mxGeometry x="-1060" y="940" width="150" height="50" as="geometry" />
        </mxCell>
        <mxCell id="eU4avIr93L6JoO_hdqMd-23" value="HH_RFX_CONFIRM_FILE&lt;div&gt;定标单附件&lt;/div&gt;" style="rounded=1;whiteSpace=wrap;html=1;fillColor=#fff2cc;strokeColor=#d6b656;" vertex="1" parent="1">
          <mxGeometry x="-940" y="1040" width="150" height="50" as="geometry" />
        </mxCell>
        <mxCell id="eU4avIr93L6JoO_hdqMd-24" value="HH_RFX_NEWS&lt;div&gt;答疑&lt;/div&gt;" style="rounded=1;whiteSpace=wrap;html=1;fillColor=#f8cecc;strokeColor=#b85450;" vertex="1" parent="1">
          <mxGeometry x="-644" y="980" width="150" height="50" as="geometry" />
        </mxCell>
        <mxCell id="eU4avIr93L6JoO_hdqMd-26" value="HH_RFX_NEWS_FILE&lt;br&gt;答疑附件" style="rounded=1;whiteSpace=wrap;html=1;fillColor=#fff2cc;strokeColor=#d6b656;" vertex="1" parent="1">
          <mxGeometry x="-644" y="1080" width="150" height="50" as="geometry" />
        </mxCell>
        <mxCell id="eU4avIr93L6JoO_hdqMd-27" value="HH_RFX_CONFIRM_DETAIL&lt;div&gt;定标单明细信息&lt;/div&gt;" style="rounded=1;whiteSpace=wrap;html=1;fillColor=#fff2cc;strokeColor=#d6b656;" vertex="1" parent="1">
          <mxGeometry x="-1210" y="1040" width="192" height="50" as="geometry" />
        </mxCell>
        <mxCell id="eU4avIr93L6JoO_hdqMd-30" value="HH_RFX_VOTE&lt;div&gt;投标单&lt;/div&gt;" style="rounded=1;whiteSpace=wrap;html=1;fillColor=#f8cecc;strokeColor=#b85450;" vertex="1" parent="1">
          <mxGeometry x="-460" y="660" width="150" height="50" as="geometry" />
        </mxCell>
        <mxCell id="eU4avIr93L6JoO_hdqMd-31" value="HH_RFX_ROLE_PERMISSION&lt;br&gt;角色权限信息" style="rounded=1;whiteSpace=wrap;html=1;fillColor=#ffe6cc;strokeColor=#d79b00;" vertex="1" parent="1">
          <mxGeometry x="-340" y="1020" width="200" height="50" as="geometry" />
        </mxCell>
        <mxCell id="eU4avIr93L6JoO_hdqMd-33" value="HH_RFX_VOTE_FILE&lt;br&gt;投标单附件" style="rounded=1;whiteSpace=wrap;html=1;fillColor=#fff2cc;strokeColor=#d6b656;" vertex="1" parent="1">
          <mxGeometry x="-580" y="760" width="150" height="50" as="geometry" />
        </mxCell>
        <mxCell id="eU4avIr93L6JoO_hdqMd-34" value="HH_RFX_VOTE_QUOTATION&lt;br&gt;投标单报价" style="rounded=1;whiteSpace=wrap;html=1;fillColor=#fff2cc;strokeColor=#d6b656;" vertex="1" parent="1">
          <mxGeometry x="-370" y="760" width="180" height="50" as="geometry" />
        </mxCell>
        <mxCell id="eU4avIr93L6JoO_hdqMd-35" value="HH_RFX_EVALUATE_RESULT&lt;br&gt;&lt;div&gt;评标结果&lt;/div&gt;" style="rounded=1;whiteSpace=wrap;html=1;fillColor=#fff2cc;strokeColor=#d6b656;" vertex="1" parent="1">
          <mxGeometry x="-1120" y="740" width="210" height="50" as="geometry" />
        </mxCell>
        <mxCell id="eU4avIr93L6JoO_hdqMd-36" value="HH_RFX_EVALUATE&lt;br&gt;评标单" style="rounded=1;whiteSpace=wrap;html=1;fillColor=#f8cecc;strokeColor=#b85450;" vertex="1" parent="1">
          <mxGeometry x="-1090" y="640" width="150" height="50" as="geometry" />
        </mxCell>
        <mxCell id="eU4avIr93L6JoO_hdqMd-38" value="1. 角色类型=采购员&lt;div style=&quot;&quot;&gt;2. 招标单状态=投标中(50)、评标中（60）、定标中、已定标、已废标、已流标、已发布&lt;/div&gt;&lt;div style=&quot;&quot;&gt;3.&amp;nbsp;地铁图表存在的状态=已发布&lt;/div&gt;&lt;div style=&quot;&quot;&gt;4. xx删除标识=0（未删除）&lt;/div&gt;&lt;div style=&quot;cursor: wait;&quot;&gt;5. 地铁图里面存在该招标单记录并且状态=已发布&lt;/div&gt;" style="text;html=1;align=left;verticalAlign=middle;whiteSpace=wrap;rounded=0;" vertex="1" parent="1">
          <mxGeometry x="910" width="460" height="120" as="geometry" />
        </mxCell>
        <mxCell id="eU4avIr93L6JoO_hdqMd-39" value="HH_RFX_BID_STAGE&lt;br&gt;地铁图" style="rounded=1;whiteSpace=wrap;html=1;fillColor=#ffe6cc;strokeColor=#d79b00;" vertex="1" parent="1">
          <mxGeometry x="-340" y="950" width="200" height="50" as="geometry" />
        </mxCell>
        <mxCell id="eU4avIr93L6JoO_hdqMd-90" value="组装数据响应" style="rounded=0;html=1;fontFamily=Helvetica;fontSize=12;align=center;fillColor=#d5e8d4;strokeColor=#82b366;whiteSpace=wrap;" vertex="1" parent="1">
          <mxGeometry x="1425" y="270" width="140" height="60" as="geometry" />
        </mxCell>
        <mxCell id="eU4avIr93L6JoO_hdqMd-91" value="" style="edgeStyle=orthogonalEdgeStyle;rounded=0;orthogonalLoop=1;jettySize=auto;html=1;" edge="1" parent="1" source="eU4avIr93L6JoO_hdqMd-86" target="eU4avIr93L6JoO_hdqMd-90">
          <mxGeometry relative="1" as="geometry" />
        </mxCell>
        <mxCell id="eU4avIr93L6JoO_hdqMd-94" value="投标单" style="swimlane;html=1;childLayout=stackLayout;resizeParent=1;resizeParentMax=0;horizontal=0;startSize=20;horizontalStack=0;align=left;" vertex="1" parent="1">
          <mxGeometry x="130" y="992" width="1580" height="820" as="geometry" />
        </mxCell>
        <mxCell id="eU4avIr93L6JoO_hdqMd-95" value="投标创建" style="swimlane;html=1;startSize=20;horizontal=0;align=center;" vertex="1" parent="eU4avIr93L6JoO_hdqMd-94">
          <mxGeometry x="20" width="1560" height="320" as="geometry" />
        </mxCell>
        <mxCell id="eU4avIr93L6JoO_hdqMd-96" value="" style="edgeStyle=orthogonalEdgeStyle;rounded=0;orthogonalLoop=1;jettySize=auto;html=1;" edge="1" parent="eU4avIr93L6JoO_hdqMd-95" source="eU4avIr93L6JoO_hdqMd-97" target="eU4avIr93L6JoO_hdqMd-99">
          <mxGeometry relative="1" as="geometry" />
        </mxCell>
        <mxCell id="eU4avIr93L6JoO_hdqMd-97" value="/add" style="ellipse;whiteSpace=wrap;html=1;fillColor=#f8cecc;strokeColor=#b85450;" vertex="1" parent="eU4avIr93L6JoO_hdqMd-95">
          <mxGeometry x="40" y="40" width="40" height="40" as="geometry" />
        </mxCell>
        <mxCell id="eU4avIr93L6JoO_hdqMd-98" value="" style="edgeStyle=orthogonalEdgeStyle;rounded=0;orthogonalLoop=1;jettySize=auto;html=1;" edge="1" parent="eU4avIr93L6JoO_hdqMd-95" source="eU4avIr93L6JoO_hdqMd-99">
          <mxGeometry relative="1" as="geometry">
            <mxPoint x="225" y="60" as="targetPoint" />
          </mxGeometry>
        </mxCell>
        <mxCell id="eU4avIr93L6JoO_hdqMd-99" value="remote转发" style="rounded=0;whiteSpace=wrap;html=1;fontFamily=Helvetica;fontSize=12;align=center;fillColor=#f8cecc;strokeColor=#b85450;" vertex="1" parent="eU4avIr93L6JoO_hdqMd-95">
          <mxGeometry x="120" y="30" width="80" height="60" as="geometry" />
        </mxCell>
        <mxCell id="eU4avIr93L6JoO_hdqMd-101" value="数据校验&lt;div&gt;1. 检查bidno是否为空&lt;/div&gt;&lt;div&gt;2. 检查校验当前登录人为该招标单中参与的供应商&lt;/div&gt;&lt;div&gt;3.&amp;nbsp;招标单据=已发布或投标中或评标中或定标中或已定标或已流标或已废标&lt;/div&gt;&lt;div&gt;4.&amp;nbsp;校验投标状态=【未投标】&lt;/div&gt;&lt;div&gt;5.&amp;nbsp;校验当前登录人为该招标单中的参与供应商&lt;/div&gt;&lt;div&gt;&lt;br&gt;&lt;/div&gt;&lt;div&gt;校验投标文件是否正确&lt;/div&gt;&lt;div&gt;1. 校验文件信息不能为空&lt;/div&gt;&lt;div&gt;2. 校验招标一步还是两步，判断技术文件和价格文件是否为空&lt;/div&gt;&lt;div&gt;&lt;br&gt;&lt;/div&gt;&lt;div&gt;基础数据校验&lt;/div&gt;&lt;div&gt;1. 价格开始、结果日期是否为空；&lt;/div&gt;&lt;div&gt;2. 采购明细必须在库性校验；&lt;/div&gt;" style="rounded=0;html=1;fontFamily=Helvetica;fontSize=12;align=left;fillColor=#d5e8d4;strokeColor=#82b366;whiteSpace=wrap;" vertex="1" parent="eU4avIr93L6JoO_hdqMd-95">
          <mxGeometry x="458" y="30" width="416" height="220" as="geometry" />
        </mxCell>
        <mxCell id="eU4avIr93L6JoO_hdqMd-104" value="" style="edgeStyle=orthogonalEdgeStyle;rounded=0;orthogonalLoop=1;jettySize=auto;html=1;" edge="1" parent="eU4avIr93L6JoO_hdqMd-95" target="eU4avIr93L6JoO_hdqMd-107">
          <mxGeometry relative="1" as="geometry">
            <mxPoint x="874" y="60" as="sourcePoint" />
          </mxGeometry>
        </mxCell>
        <mxCell id="eU4avIr93L6JoO_hdqMd-107" value="实体转换，数据加密&lt;div&gt;加密单价、计算总价&lt;br&gt;&lt;/div&gt;" style="rounded=0;html=1;fontFamily=Helvetica;fontSize=12;align=center;fillColor=#d5e8d4;strokeColor=#82b366;whiteSpace=wrap;" vertex="1" parent="eU4avIr93L6JoO_hdqMd-95">
          <mxGeometry x="924" y="30" width="140" height="60" as="geometry" />
        </mxCell>
        <mxCell id="eU4avIr93L6JoO_hdqMd-108" value="" style="edgeStyle=orthogonalEdgeStyle;rounded=0;orthogonalLoop=1;jettySize=auto;html=1;" edge="1" parent="eU4avIr93L6JoO_hdqMd-95" source="eU4avIr93L6JoO_hdqMd-109" target="eU4avIr93L6JoO_hdqMd-110">
          <mxGeometry relative="1" as="geometry" />
        </mxCell>
        <mxCell id="eU4avIr93L6JoO_hdqMd-109" value="数据保存" style="rounded=0;html=1;fontFamily=Helvetica;fontSize=12;align=center;fillColor=#d5e8d4;strokeColor=#82b366;whiteSpace=wrap;" vertex="1" parent="eU4avIr93L6JoO_hdqMd-95">
          <mxGeometry x="1134" y="30" width="140" height="60" as="geometry" />
        </mxCell>
        <mxCell id="eU4avIr93L6JoO_hdqMd-110" value="END" style="ellipse;whiteSpace=wrap;html=1;fillColor=#f8cecc;strokeColor=#b85450;" vertex="1" parent="eU4avIr93L6JoO_hdqMd-95">
          <mxGeometry x="1323.5" y="40" width="40" height="40" as="geometry" />
        </mxCell>
        <mxCell id="eU4avIr93L6JoO_hdqMd-111" value="" style="edgeStyle=orthogonalEdgeStyle;rounded=0;orthogonalLoop=1;jettySize=auto;html=1;" edge="1" parent="eU4avIr93L6JoO_hdqMd-95" target="eU4avIr93L6JoO_hdqMd-109">
          <mxGeometry relative="1" as="geometry">
            <mxPoint x="1064" y="60" as="sourcePoint" />
          </mxGeometry>
        </mxCell>
        <mxCell id="eU4avIr93L6JoO_hdqMd-149" value="&lt;font style=&quot;font-size: 22px;&quot;&gt;...&lt;/font&gt;" style="text;html=1;align=center;verticalAlign=middle;whiteSpace=wrap;rounded=0;" vertex="1" parent="eU4avIr93L6JoO_hdqMd-95">
          <mxGeometry x="210" y="60" width="60" height="30" as="geometry" />
        </mxCell>
        <mxCell id="eU4avIr93L6JoO_hdqMd-152" value="" style="edgeStyle=orthogonalEdgeStyle;rounded=0;orthogonalLoop=1;jettySize=auto;html=1;entryX=0.006;entryY=0.137;entryDx=0;entryDy=0;entryPerimeter=0;" edge="1" parent="eU4avIr93L6JoO_hdqMd-95" source="eU4avIr93L6JoO_hdqMd-151" target="eU4avIr93L6JoO_hdqMd-101">
          <mxGeometry relative="1" as="geometry" />
        </mxCell>
        <mxCell id="eU4avIr93L6JoO_hdqMd-151" value="实体转换，数据加密&lt;div&gt;加密单价、计算总价&lt;br&gt;&lt;/div&gt;" style="rounded=0;html=1;fontFamily=Helvetica;fontSize=12;align=center;fillColor=#d5e8d4;strokeColor=#82b366;whiteSpace=wrap;" vertex="1" parent="eU4avIr93L6JoO_hdqMd-95">
          <mxGeometry x="278" y="30" width="140" height="60" as="geometry" />
        </mxCell>
        <mxCell id="eU4avIr93L6JoO_hdqMd-113" value="投标编辑" style="swimlane;html=1;startSize=20;horizontal=0;" vertex="1" parent="eU4avIr93L6JoO_hdqMd-94">
          <mxGeometry x="20" y="320" width="1560" height="500" as="geometry" />
        </mxCell>
        <mxCell id="eU4avIr93L6JoO_hdqMd-114" value="" style="edgeStyle=orthogonalEdgeStyle;rounded=0;orthogonalLoop=1;jettySize=auto;html=1;" edge="1" parent="eU4avIr93L6JoO_hdqMd-113" source="eU4avIr93L6JoO_hdqMd-115" target="eU4avIr93L6JoO_hdqMd-117">
          <mxGeometry relative="1" as="geometry" />
        </mxCell>
        <mxCell id="eU4avIr93L6JoO_hdqMd-115" value="/update" style="ellipse;whiteSpace=wrap;html=1;fillColor=#f8cecc;strokeColor=#b85450;" vertex="1" parent="eU4avIr93L6JoO_hdqMd-113">
          <mxGeometry x="40" y="40" width="40" height="40" as="geometry" />
        </mxCell>
        <mxCell id="eU4avIr93L6JoO_hdqMd-116" value="" style="edgeStyle=orthogonalEdgeStyle;rounded=0;orthogonalLoop=1;jettySize=auto;html=1;" edge="1" parent="eU4avIr93L6JoO_hdqMd-113" source="eU4avIr93L6JoO_hdqMd-117" target="eU4avIr93L6JoO_hdqMd-119">
          <mxGeometry relative="1" as="geometry" />
        </mxCell>
        <mxCell id="eU4avIr93L6JoO_hdqMd-117" value="remote转发" style="rounded=0;whiteSpace=wrap;html=1;fontFamily=Helvetica;fontSize=12;align=center;fillColor=#f8cecc;strokeColor=#b85450;" vertex="1" parent="eU4avIr93L6JoO_hdqMd-113">
          <mxGeometry x="120" y="30" width="80" height="60" as="geometry" />
        </mxCell>
        <mxCell id="eU4avIr93L6JoO_hdqMd-118" value="" style="edgeStyle=orthogonalEdgeStyle;rounded=0;orthogonalLoop=1;jettySize=auto;html=1;" edge="1" parent="eU4avIr93L6JoO_hdqMd-113" source="eU4avIr93L6JoO_hdqMd-119" target="eU4avIr93L6JoO_hdqMd-123">
          <mxGeometry relative="1" as="geometry" />
        </mxCell>
        <mxCell id="eU4avIr93L6JoO_hdqMd-119" value="&lt;div&gt;RfxBidOuterController&lt;br&gt;&lt;/div&gt;/rfx/outer&lt;span style=&quot;background-color: initial;&quot;&gt;/bid/&lt;/span&gt;detail" style="rounded=0;html=1;fontFamily=Helvetica;fontSize=12;align=center;fillColor=#d5e8d4;strokeColor=#82b366;whiteSpace=wrap;" vertex="1" parent="eU4avIr93L6JoO_hdqMd-113">
          <mxGeometry x="300" y="30" width="140" height="60" as="geometry" />
        </mxCell>
        <mxCell id="eU4avIr93L6JoO_hdqMd-120" value="&lt;font style=&quot;font-size: 22px;&quot;&gt;...&lt;/font&gt;" style="text;html=1;align=center;verticalAlign=middle;whiteSpace=wrap;rounded=0;" vertex="1" parent="eU4avIr93L6JoO_hdqMd-113">
          <mxGeometry x="200" y="60" width="60" height="30" as="geometry" />
        </mxCell>
        <mxCell id="eU4avIr93L6JoO_hdqMd-121" value="招标单号" style="text;html=1;align=center;verticalAlign=middle;whiteSpace=wrap;rounded=0;" vertex="1" parent="eU4avIr93L6JoO_hdqMd-113">
          <mxGeometry x="220" y="30" width="60" height="30" as="geometry" />
        </mxCell>
        <mxCell id="eU4avIr93L6JoO_hdqMd-122" value="" style="edgeStyle=orthogonalEdgeStyle;rounded=0;orthogonalLoop=1;jettySize=auto;html=1;" edge="1" parent="eU4avIr93L6JoO_hdqMd-113" source="eU4avIr93L6JoO_hdqMd-123" target="eU4avIr93L6JoO_hdqMd-126">
          <mxGeometry relative="1" as="geometry" />
        </mxCell>
        <mxCell id="eU4avIr93L6JoO_hdqMd-123" value="&lt;font color=&quot;#ff3333&quot;&gt;封装查询条件&lt;/font&gt;" style="rounded=0;html=1;fontFamily=Helvetica;fontSize=12;align=center;fillColor=#d5e8d4;strokeColor=#82b366;whiteSpace=wrap;" vertex="1" parent="eU4avIr93L6JoO_hdqMd-113">
          <mxGeometry x="490" y="30" width="80" height="60" as="geometry" />
        </mxCell>
        <mxCell id="eU4avIr93L6JoO_hdqMd-124" value="查询条件：&lt;div&gt;1. 招标单号；&lt;/div&gt;&lt;div style=&quot;&quot;&gt;2. 模块标识：&lt;/div&gt;&lt;div style=&quot;&quot;&gt;&lt;b&gt;单据归属信息、&lt;/b&gt;&lt;/div&gt;&lt;div style=&quot;&quot;&gt;&lt;b&gt;基础信息、&lt;/b&gt;&lt;/div&gt;&lt;div style=&quot;&quot;&gt;&lt;b&gt;采购明细、&lt;/b&gt;&lt;/div&gt;&lt;div style=&quot;&quot;&gt;&lt;b&gt;招标文件、&lt;/b&gt;&lt;/div&gt;&lt;div style=&quot;&quot;&gt;&lt;b&gt;供应商&lt;/b&gt;&lt;/div&gt;" style="text;html=1;align=left;verticalAlign=middle;whiteSpace=wrap;rounded=0;" vertex="1" parent="eU4avIr93L6JoO_hdqMd-113">
          <mxGeometry x="650" y="110" width="120" height="120" as="geometry" />
        </mxCell>
        <mxCell id="eU4avIr93L6JoO_hdqMd-125" value="" style="edgeStyle=orthogonalEdgeStyle;rounded=0;orthogonalLoop=1;jettySize=auto;html=1;" edge="1" parent="eU4avIr93L6JoO_hdqMd-113" source="eU4avIr93L6JoO_hdqMd-126" target="eU4avIr93L6JoO_hdqMd-128">
          <mxGeometry relative="1" as="geometry" />
        </mxCell>
        <mxCell id="eU4avIr93L6JoO_hdqMd-126" value="查询招投标主单&lt;br&gt;且状态=上图中的2说明" style="rounded=0;html=1;fontFamily=Helvetica;fontSize=12;align=center;fillColor=#d5e8d4;strokeColor=#82b366;whiteSpace=wrap;" vertex="1" parent="eU4avIr93L6JoO_hdqMd-113">
          <mxGeometry x="620" y="30" width="130" height="60" as="geometry" />
        </mxCell>
        <mxCell id="eU4avIr93L6JoO_hdqMd-127" value="" style="edgeStyle=orthogonalEdgeStyle;rounded=0;orthogonalLoop=1;jettySize=auto;html=1;" edge="1" parent="eU4avIr93L6JoO_hdqMd-113" source="eU4avIr93L6JoO_hdqMd-128" target="eU4avIr93L6JoO_hdqMd-130">
          <mxGeometry relative="1" as="geometry" />
        </mxCell>
        <mxCell id="eU4avIr93L6JoO_hdqMd-128" value="查询单据归属信息&lt;div&gt;1. 查询招标单状态；&lt;/div&gt;&lt;div&gt;2. 查询招标小组（条件：招标单号、采购员）；&lt;/div&gt;" style="rounded=0;html=1;fontFamily=Helvetica;fontSize=12;align=left;fillColor=#d5e8d4;strokeColor=#82b366;whiteSpace=wrap;" vertex="1" parent="eU4avIr93L6JoO_hdqMd-113">
          <mxGeometry x="790" y="25" width="260" height="70" as="geometry" />
        </mxCell>
        <mxCell id="eU4avIr93L6JoO_hdqMd-129" value="" style="edgeStyle=orthogonalEdgeStyle;rounded=0;orthogonalLoop=1;jettySize=auto;html=1;" edge="1" parent="eU4avIr93L6JoO_hdqMd-113" source="eU4avIr93L6JoO_hdqMd-130" target="eU4avIr93L6JoO_hdqMd-132">
          <mxGeometry relative="1" as="geometry" />
        </mxCell>
        <mxCell id="eU4avIr93L6JoO_hdqMd-130" value="&lt;div&gt;判断是否需要查询基础信息&lt;br&gt;&lt;/div&gt;&lt;div style=&quot;&quot;&gt;1. 查询招标单主表；&lt;/div&gt;&lt;div style=&quot;&quot;&gt;2. 查询招标策略；&lt;/div&gt;" style="rounded=0;html=1;fontFamily=Helvetica;fontSize=12;align=left;fillColor=#d5e8d4;strokeColor=#82b366;whiteSpace=wrap;" vertex="1" parent="eU4avIr93L6JoO_hdqMd-113">
          <mxGeometry x="790" y="120" width="260" height="70" as="geometry" />
        </mxCell>
        <mxCell id="eU4avIr93L6JoO_hdqMd-131" value="" style="edgeStyle=orthogonalEdgeStyle;rounded=0;orthogonalLoop=1;jettySize=auto;html=1;" edge="1" parent="eU4avIr93L6JoO_hdqMd-113" source="eU4avIr93L6JoO_hdqMd-132" target="eU4avIr93L6JoO_hdqMd-134">
          <mxGeometry relative="1" as="geometry" />
        </mxCell>
        <mxCell id="eU4avIr93L6JoO_hdqMd-132" value="&lt;div&gt;&lt;span style=&quot;background-color: initial;&quot;&gt;判断是否需要查询招标文件&lt;/span&gt;&lt;/div&gt;&lt;div&gt;&lt;span style=&quot;background-color: initial;&quot;&gt;1. 查询招标文件表；&lt;/span&gt;&lt;/div&gt;" style="rounded=0;html=1;fontFamily=Helvetica;fontSize=12;align=left;fillColor=#d5e8d4;strokeColor=#82b366;whiteSpace=wrap;" vertex="1" parent="eU4avIr93L6JoO_hdqMd-113">
          <mxGeometry x="790" y="210" width="260" height="50" as="geometry" />
        </mxCell>
        <mxCell id="eU4avIr93L6JoO_hdqMd-133" value="" style="edgeStyle=orthogonalEdgeStyle;rounded=0;orthogonalLoop=1;jettySize=auto;html=1;" edge="1" parent="eU4avIr93L6JoO_hdqMd-113" source="eU4avIr93L6JoO_hdqMd-134" target="eU4avIr93L6JoO_hdqMd-136">
          <mxGeometry relative="1" as="geometry" />
        </mxCell>
        <mxCell id="eU4avIr93L6JoO_hdqMd-134" value="&lt;div&gt;&lt;span style=&quot;background-color: initial;&quot;&gt;判断是否需要查询采购明细&lt;/span&gt;&lt;/div&gt;&lt;div&gt;&lt;span style=&quot;background-color: initial;&quot;&gt;1. 查询采购明细表；&lt;/span&gt;&lt;br&gt;&lt;/div&gt;" style="rounded=0;html=1;fontFamily=Helvetica;fontSize=12;align=left;fillColor=#d5e8d4;strokeColor=#82b366;whiteSpace=wrap;" vertex="1" parent="eU4avIr93L6JoO_hdqMd-113">
          <mxGeometry x="790" y="282" width="260" height="50" as="geometry" />
        </mxCell>
        <mxCell id="eU4avIr93L6JoO_hdqMd-135" value="" style="edgeStyle=orthogonalEdgeStyle;rounded=0;orthogonalLoop=1;jettySize=auto;html=1;entryX=0;entryY=0.5;entryDx=0;entryDy=0;" edge="1" parent="eU4avIr93L6JoO_hdqMd-113" source="eU4avIr93L6JoO_hdqMd-136" target="eU4avIr93L6JoO_hdqMd-137">
          <mxGeometry relative="1" as="geometry">
            <mxPoint x="1130" y="378" as="targetPoint" />
          </mxGeometry>
        </mxCell>
        <mxCell id="eU4avIr93L6JoO_hdqMd-136" value="&lt;div&gt;&lt;span style=&quot;background-color: initial;&quot;&gt;判断招标&lt;/span&gt;&lt;span style=&quot;background-color: initial;&quot;&gt;供应商&lt;/span&gt;&lt;/div&gt;&lt;div&gt;&lt;span style=&quot;background-color: initial;&quot;&gt;1. 查询供应商招标明细表；&lt;/span&gt;&lt;/div&gt;" style="rounded=0;html=1;fontFamily=Helvetica;fontSize=12;align=left;fillColor=#d5e8d4;strokeColor=#82b366;whiteSpace=wrap;" vertex="1" parent="eU4avIr93L6JoO_hdqMd-113">
          <mxGeometry x="790" y="353" width="260" height="50" as="geometry" />
        </mxCell>
        <mxCell id="eU4avIr93L6JoO_hdqMd-137" value="判断响应数据&lt;div&gt;是否有该供应商&lt;/div&gt;" style="rounded=0;html=1;fontFamily=Helvetica;fontSize=12;align=center;fillColor=#e3c800;strokeColor=#B09500;whiteSpace=wrap;fontColor=#000000;" vertex="1" parent="eU4avIr93L6JoO_hdqMd-113">
          <mxGeometry x="1120" y="30" width="130" height="60" as="geometry" />
        </mxCell>
        <mxCell id="eU4avIr93L6JoO_hdqMd-138" value="先查数据再过滤？会不会造成大量DB连接占用" style="text;html=1;align=center;verticalAlign=middle;whiteSpace=wrap;rounded=0;" vertex="1" parent="eU4avIr93L6JoO_hdqMd-113">
          <mxGeometry x="1120" y="95" width="140" height="55" as="geometry" />
        </mxCell>
        <mxCell id="eU4avIr93L6JoO_hdqMd-139" value="" style="edgeStyle=orthogonalEdgeStyle;rounded=0;orthogonalLoop=1;jettySize=auto;html=1;" edge="1" parent="eU4avIr93L6JoO_hdqMd-113" target="eU4avIr93L6JoO_hdqMd-140">
          <mxGeometry relative="1" as="geometry">
            <mxPoint x="1425" y="60" as="sourcePoint" />
          </mxGeometry>
        </mxCell>
        <mxCell id="eU4avIr93L6JoO_hdqMd-140" value="END" style="ellipse;whiteSpace=wrap;html=1;fillColor=#f8cecc;strokeColor=#b85450;" vertex="1" parent="eU4avIr93L6JoO_hdqMd-113">
          <mxGeometry x="1466.5" y="40" width="40" height="40" as="geometry" />
        </mxCell>
        <mxCell id="eU4avIr93L6JoO_hdqMd-144" value="组装数据响应" style="rounded=0;html=1;fontFamily=Helvetica;fontSize=12;align=center;fillColor=#d5e8d4;strokeColor=#82b366;whiteSpace=wrap;" vertex="1" parent="eU4avIr93L6JoO_hdqMd-113">
          <mxGeometry x="1310" y="60" width="140" height="60" as="geometry" />
        </mxCell>
        <mxCell id="eU4avIr93L6JoO_hdqMd-145" value="" style="edgeStyle=orthogonalEdgeStyle;rounded=0;orthogonalLoop=1;jettySize=auto;html=1;" edge="1" parent="eU4avIr93L6JoO_hdqMd-113" source="eU4avIr93L6JoO_hdqMd-137" target="eU4avIr93L6JoO_hdqMd-144">
          <mxGeometry relative="1" as="geometry" />
        </mxCell>
        <mxCell id="eU4avIr93L6JoO_hdqMd-141" value="协同系统" style="rounded=0;whiteSpace=wrap;html=1;fillColor=#f8cecc;strokeColor=#b85450;" vertex="1" parent="1">
          <mxGeometry x="160" y="922" width="70" height="30" as="geometry" />
        </mxCell>
        <mxCell id="eU4avIr93L6JoO_hdqMd-142" value="主系统" style="rounded=0;whiteSpace=wrap;html=1;fillColor=#d5e8d4;strokeColor=#82b366;" vertex="1" parent="1">
          <mxGeometry x="250" y="922" width="70" height="30" as="geometry" />
        </mxCell>
        <mxCell id="eU4avIr93L6JoO_hdqMd-147" value="RfxBidController" style="text;whiteSpace=wrap;" vertex="1" parent="1">
          <mxGeometry x="120" y="90" width="120" height="40" as="geometry" />
        </mxCell>
        <mxCell id="eU4avIr93L6JoO_hdqMd-148" value="RfxVoteController" style="text;whiteSpace=wrap;" vertex="1" parent="1">
          <mxGeometry x="130" y="962" width="130" height="30" as="geometry" />
        </mxCell>
        <mxCell id="eU4avIr93L6JoO_hdqMd-150" value="" style="edgeStyle=orthogonalEdgeStyle;rounded=0;orthogonalLoop=1;jettySize=auto;html=1;" edge="1" parent="1">
          <mxGeometry relative="1" as="geometry">
            <mxPoint x="403" y="1052" as="sourcePoint" />
            <mxPoint x="428" y="1052" as="targetPoint" />
          </mxGeometry>
        </mxCell>
      </root>
    </mxGraphModel>
  </diagram>
</mxfile>
